<svg 
    xmlns="http://www.w3.org/2000/svg" 
    viewBox="0 0 64 64" 
    width="64" 
    height="64"
>
    <!-- Simplified Umbrella Shape -->
    <path 
        d="M32 4C15.4 4 2 17.4 2 34h3c0-6.7 4.4-12.5 10.6-14.6C17.3 18.9 22.9 14.2 28.4 14.2s11.1 4.7 15.8 11.2C54.6 21.5 59 27.3 59 34h3C62 17.4 48.6 4 32 4z" 
        fill="#4CAF50"
    />
    <!-- Eye Shape (inside umbrella) -->
    <circle cx="32" cy="28" r="18" fill="#FFFFFF" stroke="#B0BEC5" stroke-width="2" />
    <!-- Iris (center of eye) -->
    <circle cx="32" cy="28" r="10" fill="#003366" stroke="#002244" stroke-width="2" />
    <circle cx="32" cy="28" r="5" fill="#000000" />
    <!-- Stylized Clock Hands -->
    <path d="M32 28 L32 18" stroke="#FF5722" stroke-width="3" stroke-linecap="round" />
    <path d="M32 28 L50 28" stroke="#00BCD4" stroke-width="2.5" stroke-linecap="round" />
    <!-- Clock Detail -->
    <circle cx="32" cy="28" r="2" fill="#B0BEC5" />
</svg>
